<svg xmlns="http://www.w3.org/2000/svg" xmlns:xlink="http://www.w3.org/1999/xlink"><defs><clipPath id="474za"><path fill="#fff" d="M19-.002c10.493 0 19 8.506 19 19s-8.507 19-19 19c-10.494 0-19-8.506-19-19s8.506-19 19-19z"/></clipPath></defs><symbol id="icon-adv" viewBox="0 0 101 116"><g><g><path fill="#fe8682" d="M.735 29.002L50.811.004l50.076 28.998v57.995L50.81 115.995.735 86.997z"/></g><g><path fill="#fc635e" d="M5.743 32.002L50.811 6.003 95.88 32.002v51.995l-45.068 25.999L5.743 83.997z"/></g><g><path fill="#fff" d="M42.17 51.163l-.06 12.663c.002 1.06-1.34 2.923-1.34 2.923-.992 2.957 1.5 4.01-.243 5.817 2.317 4.76-2.34 5.434-2.34 5.434-1.596 0-1.346-1.591-1.346-1.591l-.016-9.916c.136-2.514-1.433-2.572-1.433-2.572-3.789.005-3.95-4.053-3.956-4.542a3.293 3.293 0 0 1-1.439-2.72c0-1.127.568-2.12 1.431-2.712v-.11c-.007-3.985 4.109-4.172 4.109-4.172l5.206-.01c1.683-.003 1.432 1.504 1.428 1.508zm24.833 5.017c.004 1.725-.973 3.214-2.388 3.976l.023 11.55c.078 1.428-1.025.059-1.025.059s-4.779-8.837-18.754-8.81c0 0-1.32.001-1.32-1.259l-.022-10.93s-.236-1.26 1.239-1.263c0 0 12.504.735 18.549-8.692 0 0 1.273-1.684 1.277-.17l.019 11.573c1.418.76 2.402 2.237 2.402 3.966zM63.04 43.33c-3.976 6.18-12.197 7.334-12.197 7.334 10.652-.108 12.197-7.334 12.197-7.334zm1.93 9.851c1.583 2.32 1.16 4.29 1.16 4.29.965-3.053-1.16-4.29-1.16-4.29z"/></g></g></symbol><symbol id="icon-arrowLeft" viewBox="0 0 31 31"><g><g><path fill="#fc635e" d="M-.01 15.5C-.01 6.954 6.946 0 15.495 0c8.547 0 15.5 6.954 15.5 15.5S24.042 31 15.495 31C6.945 31-.01 24.045-.01 15.5zm1.422 0c0 7.763 6.318 14.077 14.083 14.077 7.763 0 14.078-6.314 14.078-14.077 0-7.762-6.315-14.078-14.078-14.078C7.73 1.422 1.412 7.738 1.412 15.5zm2.955.102l17.397-10.04-6.068 9.883 6.068 10.2z"/></g></g></symbol><symbol id="icon-arrowRight" viewBox="0 0 31 31"><g><g><path fill="#fc635e" d="M15.504 31c-8.546 0-15.5-6.954-15.5-15.5S6.958 0 15.504 0c8.55 0 15.506 6.954 15.506 15.5S24.054 31 15.504 31zm0-29.578C7.742 1.422 1.427 7.738 1.427 15.5c0 7.763 6.315 14.077 14.077 14.077 7.766 0 14.083-6.314 14.083-14.077 0-7.762-6.317-14.078-14.083-14.078zM9.235 25.644l6.069-10.2-6.069-9.882 17.398 10.04z"/></g></g></symbol><symbol id="icon-branding" viewBox="0 0 102 116"><g><g><path fill="#fc635e" d="M.754 29.002L50.975.004l50.222 28.998v57.995l-50.222 28.998L.755 86.997z"/></g><g><path fill="#fff" d="M5.776 32.002l45.2-25.999 45.199 25.999v51.995l-45.2 25.999L5.776 83.997z"/></g><g><path fill="#fc635e" d="M57.6 75.965c-.528.071-5.507.006-5.875 0-.368.006-5.348.071-5.876 0-.549-.075 0-.513.694-1.024.695-.511.767-1.28.767-1.28l.262-1.665h8.305l.26 1.666s.074.768.77 1.28c.693.512 1.24.95.694 1.023zM42.37 61.63c2.218-.017 2.494-.552 3.217-2.78 1.334-3.517 7.341.92 3.618 2.46-3.722 1.542-9.055.338-6.836.32zm22.664-19.077L51.652 57.117c-1.124 1.395-.864 1.333-1.94.465-1.077-.867-1.083-.6.04-1.995l11.384-16.178c1.124-1.395 2.907-1.822 3.984-.954 1.077.867 1.038 2.701-.086 4.097zm-1.096-3.908s-1.635-.249-2.466 1.11c.555.443.721.637.721.637s.195-.831 1.745-1.747zm7.834 6.881v23.262c0 .886-.718 1.605-1.604 1.605H33.28a1.604 1.604 0 0 1-1.603-1.605V45.525c0-.885.718-1.604 1.603-1.604h23.022l-1.695 2.406H34.084V65.58h35.282V46.327h-6.415l2.211-2.406h5.006c.886 0 1.604.719 1.604 1.604z"/></g></g></symbol><symbol id="icon-clients" viewBox="0 0 101 116"><g><g><path fill="#fe8682" d="M.15 29.002L50.252.004l50.103 28.998v57.995l-50.103 28.998L.149 86.997z"/></g><g><path fill="#fc635e" d="M5.16 32.002L50.253 6.003l45.093 25.999v51.995l-45.093 25.999L5.16 83.997z"/></g><g><path fill="#fff" d="M58.527 61.613c.55 3.047.941 9.69-4.99 13.205-.792.47-1.372.024-1.357-.885.06-4.006-1.428-13.957-17.747-13.656-.925.016-1.482-.65-1.121-1.487 1.145-2.656 4.32-7.772 11.735-7.524.922.031 2.007-.517 2.497-1.287 1.283-2.019 4.072-5.762 8.48-8.435 2.72-1.698 5.22-2.418 6.78-2.724.906-.176 1.679-.26 1.71-.306l.06-.083c.214-.27.466-.43.564-.36l.07.053c.04.028.31-.024.605-.115.295-.092.483.051.421.319-.06.267-.085.503-.053.527l.058.043c.095.074.002.352-.216.621a1.89 1.89 0 0 1-.085.105c-.052.055.02.824.063 1.731a20.327 20.327 0 0 1-.257 4.215c-.024.158-.05.312-.077.461-.023.119-.04.228-.065.346-.108.557-.226 1.05-.336 1.464-.215.802-.689 2.132-1.037 2.973-1.026 2.467-2.594 5.163-4.973 7.958-.593.697-.89 1.946-.729 2.84zm-.73-7.837c.895-1.51.341-3.458-1.23-4.345-1.378-.777-3.078-.492-4.083.6-.141.153-.268.32-.378.508-.895 1.509-.345 3.454 1.23 4.345 1.374.779 3.074.492 4.082-.6a3.16 3.16 0 0 0 .379-.508zM42.104 75.372c.758-1.818 2.398-4.828 5.467-6.748.78-.487 1.261-.07.91.77-.796 1.903-2.49 5.094-5.417 6.824-.792.468-1.31-.004-.96-.846zm-5.88.595c.917-2.46 3.209-7.234 7.902-10.003.793-.466 1.279-.055.957.797-.972 2.574-3.376 7.666-7.845 10.089-.808.437-1.33-.03-1.014-.883zm-.996-5.889c.76-1.82 2.4-4.827 5.467-6.745.78-.487 1.262-.07.91.77-.796 1.902-2.49 5.092-5.416 6.82-.792.467-1.312-.005-.96-.845z"/></g></g></symbol><symbol id="icon-ellipsis" viewBox="0 0 209 242"><g><g><path fill="#fe8682" d="M-.015 60.504L104.49.008l104.505 60.496v120.99L104.489 241.99-.015 181.493z"/></g><g><path fill="#fc635e" d="M10.436 66.762l94.053-54.239 94.054 54.24v108.472l-94.054 54.238-94.053-54.238z"/></g></g></symbol><symbol id="icon-facebook" viewBox="0 0 37 37"><g><g><path fill="#565656" d="M36.992 18.506c0 10.22-8.281 18.507-18.496 18.507C8.282 37.013 0 28.726 0 18.506S8.282 0 18.496 0c10.215 0 18.496 8.284 18.496 18.506zm-13.31-3.828h-3.44l.004-1.916c0-.997.07-1.531 1.501-1.531h1.915V7.403H20.6c-3.674 0-4.52 1.898-4.52 5.022l.005 2.253-2.775.002v3.826h2.775V29.61h4.159l.002-11.104 3.032-.002z"/></g></g></symbol><symbol id="icon-linkedIn" viewBox="0 0 37 37"><g><g><path fill="#565656" d="M36.992 18.506c0 10.22-8.281 18.507-18.496 18.507C8.282 37.013 0 28.726 0 18.506S8.282 0 18.496 0c10.215 0 18.496 8.284 18.496 18.506zm-23.12-7.229H9.248V27.47h4.624zm0-3.163c0-1.195-.97-2.167-2.169-2.17a2.17 2.17 0 0 0 0 4.34 2.169 2.169 0 0 0 2.169-2.17zM30.056 17.6c0-5.422-3.125-6.32-4.624-6.32a7.739 7.739 0 0 0-4.624 1.545v-1.547h-4.624V27.47h4.624V17.458s.46-1.994 2.85-1.994c1.44 0 1.774.821 1.774 1.994V27.47h4.624z"/></g></g></symbol><symbol id="icon-marketing" viewBox="0 0 101 116"><g><g><path fill="#fe8682" d="M.398 29.002L50.582.004l50.185 28.998v57.995l-50.185 28.998L.398 86.997z"/></g><g><path fill="#fc635e" d="M5.417 32.002L50.582 6.003l45.166 25.999v51.995l-45.166 25.999L5.417 83.997z"/></g><g><path fill="#fff" d="M69 42.894v29.211A3.906 3.906 0 0 1 65.11 76H35.895A3.908 3.908 0 0 1 32 72.105V42.894a3.905 3.905 0 0 1 3.895-3.895H65.11c2.138 0 3.89 1.75 3.89 3.895zM36.225 63.745h28.55V44.27h-28.55zm30.101 5.475H46.395a3.331 3.331 0 0 0-3.239-2.567 3.332 3.332 0 0 0-3.238 2.567h-5.242v1.542h5.246a3.326 3.326 0 0 0 3.234 2.56 3.327 3.327 0 0 0 3.235-2.56h19.935zm-12.42-22.127h3.982v13.36h-3.981zM42.922 52.23h3.983v8.223H42.92zm5.493-2.183h3.984v10.406h-3.984z"/></g></g></symbol><symbol id="icon-mouse" viewBox="0 0 47 32"><g><g opacity=".2"><path fill="#fff" d="M11.718-.005h19.587c8.653 0 15.692 7.176 15.692 15.999 0 8.822-7.039 15.999-15.692 15.999H11.718c-7.69 0-11.713-8.27-11.713-16.44C.005 8.06 3.67-.006 11.718-.006zm0 28.987h7.321c1.065-3.355 4.165-15 .048-25.976h-7.37c-6.05 0-8.758 6.302-8.758 12.547 0 6.51 3.07 13.429 8.759 13.429zM31.305 3.006H22.23c1.418 4.2 1.92 8.409 1.92 12.24 0 5.984-1.208 11.046-2.005 13.736h9.161c7.024 0 12.738-5.827 12.738-12.988 0-7.162-5.714-12.988-12.738-12.988zM17.09 17.31H6.382c-.815 0-1.476-.674-1.476-1.506 0-.83.661-1.506 1.476-1.506H17.09c.815 0 1.477.675 1.477 1.506 0 .832-.661 1.506-1.477 1.506z"/></g></g></symbol><symbol id="icon-quote" viewBox="0 0 74 86"><g><g><path fill="#fe8682" d="M-.005 21.501L37.002.003 74.009 21.5v42.996l-37.007 21.5-37.007-21.5z"/></g><g><path fill="#fc635e" d="M3.695 23.725L37.002 4.45l33.306 19.275v38.548L37.002 81.548 3.695 62.273z"/></g><g><path fill="#fff" d="M27.285 43.711h8.506v13.284H19.994V43.71c0-10.023 2.433-15.706 10.935-15.706v8.093c-3.644 0-3.644.726-3.644 5.075zm26.72 0v13.284H38.218V43.71c0-10.023 2.43-15.706 10.932-15.706v8.094c-3.643 0-3.643.726-3.643 5.075v2.537z"/></g></g></symbol><symbol id="icon-step-five" viewBox="0 0 38 38"><g><g><path fill="#fff" d="M19-.002c10.493 0 19 8.506 19 19s-8.507 19-19 19c-10.494 0-19-8.506-19-19s8.506-19 19-19z"/><path fill="none" stroke="#fc635e" stroke-miterlimit="50" stroke-width="6" d="M19-.002c10.493 0 19 8.506 19 19s-8.507 19-19 19c-10.494 0-19-8.506-19-19s8.506-19 19-19z" clip-path="url(&quot;#474za&quot;)"/></g><g><path fill="#fc635e" d="M22.275 21.502c.266 1.483.456 4.717-2.418 6.428-.384.228-.665.011-.658-.431.029-1.95-.692-6.794-8.601-6.647-.448.007-.718-.317-.543-.724.555-1.293 2.093-3.783 5.687-3.662.447.015.973-.252 1.21-.627.622-.983 1.974-2.804 4.11-4.105a9.819 9.819 0 0 1 3.286-1.326c.439-.086.814-.126.829-.15.01-.012.019-.026.029-.04.104-.13.226-.209.273-.174l.034.025c.02.013.15-.012.293-.056.143-.045.235.025.204.155-.029.13-.04.245-.025.257l.028.02c.046.037 0 .172-.105.303a1.052 1.052 0 0 1-.041.051c-.025.027.01.401.03.843a9.934 9.934 0 0 1-.124 2.051l-.037.225-.032.168c-.052.27-.11.511-.163.713-.104.39-.334 1.037-.503 1.447-.496 1.2-1.257 2.513-2.41 3.873-.287.34-.431.948-.353 1.383zm-.354-3.815c.434-.735.166-1.683-.596-2.115a1.613 1.613 0 0 0-1.978.292c-.069.075-.13.156-.184.248-.434.734-.167 1.681.597 2.115.665.379 1.489.24 1.978-.292.066-.074.13-.156.183-.248zM14.316 28.2c.367-.885 1.162-2.35 2.65-3.284.377-.238.61-.035.44.374-.385.927-1.206 2.48-2.625 3.322-.384.228-.635-.002-.465-.412zm-2.85.29c.444-1.198 1.555-3.522 3.83-4.87.384-.226.62-.026.463.388-.47 1.253-1.635 3.732-3.801 4.911-.392.213-.645-.015-.492-.43zm-.482-2.867c.367-.885 1.162-2.35 2.65-3.283.377-.237.61-.034.44.375-.386.926-1.206 2.478-2.625 3.32-.384.227-.636-.003-.465-.412z"/></g></g></symbol><symbol id="icon-step-four" viewBox="0 0 38 38"><g><g><path fill="#fc635e" d="M19-.002c10.493 0 19 8.506 19 19 0 10.493-8.507 19-19 19-10.494 0-19-8.507-19-19 0-10.494 8.506-19 19-19z"/></g><g><path fill="#fff" d="M29.981 15.11c.039.229 0 .603-.042.83l-1.726 9.218c-.043.228-.073.602-.12.829C27.855 27.13 26.67 28 25.509 28h-8.175c-.474 0-.914-.149-1.282-.4-.187-.128-.475-.355-.666-.476-.702-.445-1.505-.959-2.738-1.053a2.094 2.094 0 0 1-.76-.22l-1.172-.682a.797.797 0 0 1-.354-.626v-8.271c0-.231.171-.483.382-.562l2.722-1.011c.211-.079.544-.228.741-.339.968-.547 3.65-2.183 5.047-4.217C20.327 8.579 21.386 7 22.116 7c.443 0 .765.579.898 2.09.16 1.816-.14 2.882-.668 3.675-.126.192-.064.334.16.334h5.16c1.16 0 2.124.87 2.315 2.012zm-20.138.5v9.657c0 .387-.303.7-.677.7h-1.49a.689.689 0 0 1-.676-.7v-9.656c0-.387.303-.7.677-.7h1.49c.373 0 .676.313.676.7z"/></g></g></symbol><symbol id="icon-step-one" viewBox="0 0 38 38"><g><g><path fill="#fc635e" d="M19-.002c10.493 0 19 8.506 19 19 0 10.493-8.507 19-19 19-10.494 0-19-8.507-19-19 0-10.494 8.506-19 19-19z"/></g><g><path fill="#fff" d="M24.833 16.375c0 3.125-3.166 6.2-3.166 9.375h-6.334c0-3.076-3.166-6.25-3.166-9.375 0-3.452 2.835-6.25 6.333-6.25 3.497 0 6.333 2.798 6.333 6.25zm-3.166 13.281a.786.786 0 0 1-.792.781h-.145A2.363 2.363 0 0 1 18.5 32a2.363 2.363 0 0 1-2.23-1.563h-.145a.786.786 0 0 1-.792-.781c0-.432.354-.781.792-.781h4.75c.438 0 .792.35.792.78zm0-2.344a.786.786 0 0 1-.792.782h-4.75a.786.786 0 0 1-.792-.782c0-.431.354-.78.792-.78h4.75c.438 0 .792.349.792.78zM10.668 11.01l1.426.813c-.31.423-.577.871-.796 1.35l-1.421-.808zM18.5 8.562c-.272 0-.527.052-.792.08V7h1.584V8.64c-.265-.027-.52-.079-.792-.079zm-4.612 1.491l-.825-1.407 1.373-.781.82 1.402c-.486.217-.94.48-1.368.786zm11.816 3.12a7.764 7.764 0 0 0-.798-1.35l1.426-.813.791 1.355zm-2.592-3.121a8 8 0 0 0-1.367-.785l.82-1.402 1.37.781zm-12.445 7.104H9v-1.562h1.664c-.028.26-.08.512-.08.78 0 .266.052.523.083.782zM28 15.594v1.562h-1.667c.031-.26.084-.516.084-.781 0-.269-.053-.52-.08-.781zm-2.315 3.973l1.438.818-.791 1.353L25.036 21c.233-.472.45-.948.65-1.433zm-14.376.003c.196.485.412.964.644 1.437l-1.285.731-.791-1.353z"/></g></g></symbol><symbol id="icon-step-three" viewBox="0 0 38 38"><g><g><path fill="#fc635e" d="M19-.001c10.493 0 19 8.505 19 18.999 0 10.494-8.507 19-19 19-10.494 0-19-8.506-19-19s8.506-19 19-19z"/></g><g><path fill="#fff" d="M17.063 12.406a2.04 2.04 0 0 1 2.042 2.037 2.04 2.04 0 0 1-2.042 2.036 2.04 2.04 0 0 1-2.042-2.036 2.04 2.04 0 0 1 2.042-2.037zm4.438 8.315a1.307 1.307 0 1 1 0 2.612 1.307 1.307 0 0 1 0-2.612zm9.383 1.519c-.7.77-1.889.798-1.889.798s.773 1.463.426 1.868c-.348.406-1.313.232-1.313.232s.897.646.897 1.146c0 .5-1.515 1.167-1.515 1.167s.278 2.772-1.999 2.58c-2.275-.193-2.657-.833-2.657-.833l-.674 2.8h-8.808l.309-6.09S8.252 20.05 9.103 14.81c.427-2.092.155-6.475 7.417-7.63 7.262-1.158 13.805 2.52 12.16 10.554 0 1.465 2.905 3.739 2.204 4.506zm-14.127-2.755l2.02-.184.655-.654-.095-1.05c.165-.094.324-.196.472-.311.264.15.79.454.79.454l.896-.235 1.015-1.753-.235-.893-1.015-.586a3.573 3.573 0 0 0-.07-.573c.267-.23.804-.687.804-.687v-.923l-1.322-1.538h-.927l-.657.563c-.24-.116-.49-.21-.754-.281l-.063-.78-.655-.655-2.023.163-.655.653.084 1.029c-.198.112-.386.24-.56.38l-.853-.39-.896.235-.847 1.841-.03.126.264.77.991.45c.015.218.048.43.103.636l-.757.64v.923L13.75 18.4s.763.09.804.068l.123-.068.72-.607c.201.09.412.167.632.225l.073.814zm8.238 3.382l-.15-.574-.652-.375a2.178 2.178 0 0 0-.044-.368l.515-.441v-.593l-.848-.987h-.595l-.421.361a2.835 2.835 0 0 0-.484-.18l-.04-.5-.42-.42-1.298.105-.42.418.054.66a2.522 2.522 0 0 0-.36.244l-.546-.25-.576.151-.543 1.18-.019.082.17.493.636.289c.01.14.03.276.066.408l-.485.41v.592l.841.993s.49.058.516.043l.078-.043.462-.39c.13.057.263.108.404.145l.048.523.42.419 1.295-.119.42-.418-.062-.674c.107-.06.21-.125.304-.2l.507.291.574-.15z"/></g></g></symbol><symbol id="icon-step-two" viewBox="0 0 38 38"><g><g><path fill="#fc635e" d="M19-.002c10.493 0 19 8.506 19 19s-8.507 19-19 19-19-8.506-19-19 8.507-19 19-19z"/></g><g><path fill="#fff" d="M30.01 10.425v14.75c0 .78-.63 1.42-1.4 1.42H8.394a1.416 1.416 0 0 1-1.402-1.42v-14.75c0-.78.63-1.422 1.402-1.422H28.61c.77 0 1.4.642 1.4 1.422zm-1.753.572H8.745V24.13h19.512zM23.779 30H13.262l2.645-2.727h5.226zm-6.36-14.9c.518 0 .938.426.938.951 0 .117-.02.228-.059.332l2.316 1.997a.927.927 0 0 1 1.097-.056l2.359-2.161a.962.962 0 0 1-.068-.356c0-.526.42-.952.937-.952.518 0 .938.426.938.952 0 .525-.42.951-.938.951a.923.923 0 0 1-.437-.11l-2.403 2.2c.026.088.04.18.04.275 0 .527-.42.953-.939.953a.945.945 0 0 1-.922-1.128l-2.397-2.068a.923.923 0 0 1-1.006-.054c-.973.761-3.063 2.467-4.253 3.442.026.088.04.181.04.278 0 .525-.42.95-.937.95a.944.944 0 0 1-.938-.95c0-.525.42-.951.938-.951.198 0 .381.062.533.169l4.282-3.38a.963.963 0 0 1-.058-.333c0-.525.42-.951.937-.951z"/></g></g></symbol><symbol id="icon-twitter" viewBox="0 0 37 37"><g><g><path fill="#565656" d="M37 18.5C37 28.717 28.718 37 18.5 37 8.284 37 .002 28.717.002 18.5.001 8.282 8.283 0 18.501 0 28.718 0 37 8.282 37 18.5zm-9.158-5.23a7.299 7.299 0 0 1-2.093.573 3.656 3.656 0 0 0 1.602-2.016 7.306 7.306 0 0 1-2.314.885 3.644 3.644 0 0 0-6.209 3.323 10.345 10.345 0 0 1-7.509-3.807 3.644 3.644 0 0 0 1.128 4.865 3.638 3.638 0 0 1-1.65-.456l-.001.045a3.647 3.647 0 0 0 2.923 3.573 3.627 3.627 0 0 1-1.645.063 3.646 3.646 0 0 0 3.404 2.53 7.305 7.305 0 0 1-5.395 1.508 10.307 10.307 0 0 0 5.585 1.638c6.701 0 10.366-5.552 10.366-10.368 0-.157-.002-.315-.01-.471a7.397 7.397 0 0 0 1.818-1.885z"/></g></g></symbol></svg>